<?xml version="1.0" encoding="UTF-8" standalone="no"?>
<svg
   height="1024"
   width="1024"
   version="1.1"
   id="svg8"
   sodipodi:docname="rclgd.svg"
   inkscape:version="1.4.2 (ebf0e940d0, 2025-05-08)"
   xmlns:inkscape="http://www.inkscape.org/namespaces/inkscape"
   xmlns:sodipodi="http://sodipodi.sourceforge.net/DTD/sodipodi-0.dtd"
   xmlns="http://www.w3.org/2000/svg"
   xmlns:svg="http://www.w3.org/2000/svg">
  <defs
     id="defs8">
    <inkscape:path-effect
       effect="fillet_chamfer"
       id="path-effect9"
       is_visible="true"
       lpeversion="1"
       nodesatellites_param="F,0,0,1,0,0,0,1 @ F,0,0,1,0,0,0,1 @ F,0,0,1,0,19.524346,0,1 @ F,0,0,1,0,19.363341,0,1"
       radius="0"
       unit="px"
       method="auto"
       mode="F"
       chamfer_steps="1"
       flexible="false"
       use_knot_distance="true"
       apply_no_radius="true"
       apply_with_radius="true"
       only_selected="false"
       hide_knots="false" />
    <inkscape:path-effect
       effect="fillet_chamfer"
       id="path-effect8"
       is_visible="true"
       lpeversion="1"
       nodesatellites_param="F,0,0,1,0,0,0,1 @ F,0,0,1,0,0,0,1 @ F,0,0,1,0,18.928898,0,1 @ F,0,0,1,0,12.785863,0,1 @ F,0,0,1,0,28.472547,0,1"
       radius="0"
       unit="px"
       method="auto"
       mode="F"
       chamfer_steps="1"
       flexible="false"
       use_knot_distance="true"
       apply_no_radius="true"
       apply_with_radius="true"
       only_selected="false"
       hide_knots="false" />
    <inkscape:path-effect
       effect="fillet_chamfer"
       id="path-effect9-3"
       is_visible="true"
       lpeversion="1"
       nodesatellites_param="F,0,0,1,0,0,0,1 @ F,0,0,1,0,0,0,1 @ F,0,0,1,0,19.524346,0,1 @ F,0,0,1,0,19.363341,0,1"
       radius="0"
       unit="px"
       method="auto"
       mode="F"
       chamfer_steps="1"
       flexible="false"
       use_knot_distance="true"
       apply_no_radius="true"
       apply_with_radius="true"
       only_selected="false"
       hide_knots="false" />
  </defs>
  <sodipodi:namedview
     id="namedview8"
     pagecolor="#ffffff"
     bordercolor="#000000"
     borderopacity="0.25"
     inkscape:showpageshadow="2"
     inkscape:pageopacity="0.0"
     inkscape:pagecheckerboard="0"
     inkscape:deskcolor="#d1d1d1"
     inkscape:zoom="0.59524028"
     inkscape:cx="388.91857"
     inkscape:cy="614.87774"
     inkscape:window-width="1920"
     inkscape:window-height="1131"
     inkscape:window-x="0"
     inkscape:window-y="0"
     inkscape:window-maximized="1"
     inkscape:current-layer="g9" />
  <g
     id="g9"
     transform="matrix(1.224229,0,0,1.224229,-150.59461,-251.90034)">
    <path
       style="fill:#aad400"
       d="M 93.006871,716.17346 H 245.65652 v 73.13459 A 19.524346,19.524346 135 0 1 226.13217,808.8324 H 111.77624 A 19.239615,19.239615 45.183638 0 1 92.537025,789.46946 Z"
       id="path9"
       inkscape:path-effect="#path-effect9"
       inkscape:original-d="M 93.006871,716.17346 H 245.65652 V 808.8324 H 92.412903 Z"
       transform="translate(80.94843,35.029875)" />
    <path
       style="fill:#aad400"
       d="M 93.006871,716.17346 H 245.65652 v 73.13459 A 19.524346,19.524346 135 0 1 226.13217,808.8324 H 111.77624 A 19.239615,19.239615 45.183638 0 1 92.537025,789.46946 Z"
       id="path9-7"
       inkscape:path-effect="#path-effect9-3"
       inkscape:original-d="M 93.006871,716.17346 H 245.65652 V 808.8324 H 92.412903 Z"
       transform="matrix(-1,0,0,1,849.26804,35.376482)" />
    <path
       d="m 172.86489,583.60942 v 122.20868 16.41051 c 199.67469,17.98417 389.49682,18.17896 583.74474,0.0448 0.31972,-0.0299 0.96216,-14.12163 0.96216,-14.12163 l 0.0448,-0.015 V 583.60942 c 15.22999,-19.17291 29.65138,-40.32173 40.7006,-58.11511 -16.88562,-28.7453 -37.57507,-54.43379 -59.68982,-78.23383 -20.51016,10.32381 -40.43167,22.01914 -59.2476,34.46448 -9.41543,-9.35865 -20.02011,-17.01411 -30.43655,-25.01618 -10.23416,-8.2202 -21.76814,-14.24715 -32.70749,-21.26913 3.25701,-24.25422 4.86758,-48.13194 5.51599,-73.0525 -28.22537,-14.20532 -58.32427,-23.62374 -88.76979,-30.38875 -12.1555,20.42948 -23.27114,42.5532 -32.95251,64.1809 -11.48019,-1.91834 -23.01417,-2.6295 -34.56308,-2.76695 v -0.0179 c -0.0807,0 -0.15538,0.0179 -0.22412,0.0179 -0.0718,0 -0.14641,-0.0179 -0.21812,-0.0179 v 0.0179 c -11.56984,0.13745 -23.09485,0.84861 -34.57803,2.76695 -9.67539,-21.6277 -20.78506,-43.75142 -32.95849,-64.1809 -30.43058,6.76501 -60.53246,16.18343 -88.75484,30.38875 0.64541,24.92056 2.25599,48.79828 5.52196,73.0525 -10.96027,7.02198 -22.47931,13.04893 -32.71645,21.26913 -10.40151,8.00207 -21.02411,15.65753 -30.44253,25.01618 -18.81593,-12.44534 -38.73146,-24.14067 -59.2476,-34.46448 -22.11475,23.80004 -42.79224,49.48853 -59.68384,78.23383 13.275,20.83793 27.51412,41.78194 40.70059,58.11511 z"
       fill="#478cbf"
       id="path2"
       style="fill:#aad400;stroke-width:2.98808"
       sodipodi:nodetypes="cccccccccccccccccscccccccccccc" />
    <path
       style="fill:#aad400"
       d="M 690.78422,680.38979 V 502.49652 l 145.40411,-0.90106 a 41.140759,41.140759 24.352145 0 1 31.3322,14.18138 l 39.69783,45.76276 a 34.251407,34.251407 69.529672 0 1 8.37828,22.44416 v 68.78119 a 28.365387,28.365387 135.10802 0 1 -28.47234,28.36519 z"
       id="path8"
       inkscape:path-effect="#path-effect8"
       inkscape:original-d="M 690.78422,680.38979 V 502.49652 l 164.33264,-1.01836 60.47978,69.71974 v 110.0396 z"
       transform="matrix(0.75201262,0,0,0.71459815,258.19388,239.99775)" />
    <path
       d="m 903.26953,640.2097 c 0,14.38926 -11.6587,26.04561 -26.0432,26.04561 -14.37734,0 -26.03965,-11.65635 -26.03965,-26.04561 0,-14.3797 11.66231,-26.03008 26.03965,-26.03008 14.3845,0 26.0432,11.65038 26.0432,26.03008"
       fill="#ffffff"
       id="path4"
       style="stroke-width:1.19393" />
    <path
       d="m 897.00303,641.75446 c 0,9.54428 -7.7355,17.27976 -17.2869,17.27976 -9.5467,0 -17.28696,-7.73548 -17.28696,-17.27976 0,-9.54428 7.74026,-17.28693 17.28696,-17.28693 9.5514,0 17.2869,7.74265 17.2869,17.28693"
       fill="#414042"
       id="path5"
       style="stroke-width:1.19393" />
    <path
       d="m 948.7965,684.95343 c 0,0 -0.19557,-1.19987 -0.3099,-1.18904 l -21.77225,2.10068 c -1.73241,0.16729 -3.07791,1.54889 -3.19946,3.28491 l -0.59813,8.57303 -16.84398,1.20168 -1.14572,-7.7697 c -0.25513,-1.7282 -1.76431,-3.03098 -3.51116,-3.03098 h -22.97935 c -1.74625,0 -3.25542,1.30278 -3.51056,3.03098 l -1.14632,7.7697 -16.84398,-1.20168 -0.59813,-8.57303 c -0.12155,-1.73663 -1.46705,-3.11823 -3.19947,-3.28551 l -21.78307,-2.10008 c -0.11253,-0.0108 -0.19497,1.19025 -0.30749,1.19025 l -0.0295,4.71164 18.44822,2.97501 0.60415,8.64945 c 0.12216,1.75107 1.53505,3.16697 3.28732,3.29274 l 23.19778,1.65479 c 0.0879,0.006 0.1745,0.01 0.26115,0.01 1.74325,0 3.25001,-1.30338 3.50515,-3.03158 l 1.17882,-7.99475 h 16.8518 l 1.17881,7.99475 c 0.25454,1.7276 1.76311,3.03097 3.50876,3.03097 0.0855,0 0.17089,-0.003 0.25454,-0.009 l 23.20078,-1.65479 c 1.75167,-0.12576 3.16517,-1.54166 3.28732,-3.29273 l 0.60355,-8.64945 18.4404,-2.98825 z"
       fill="#ffffff"
       id="path1"
       style="stroke-width:0.601742" />
  </g>
</svg>
